<svg width="49" height="48" viewBox="0 0 49 48" fill="none" xmlns="http://www.w3.org/2000/svg">
<path d="M16.234 11.8945C16.234 9.79145 17.0892 7.7745 18.6114 6.2874C20.1337 4.80029 22.1983 3.96484 24.351 3.96484C26.5038 3.96484 28.5684 4.80029 30.0906 6.2874C31.6128 7.7745 32.468 9.79145 32.468 11.8945V23.7891C32.468 25.8921 31.6128 27.9091 30.0906 29.3962C28.5684 30.8833 26.5038 31.7187 24.351 31.7187C22.1983 31.7187 20.1337 30.8833 18.6114 29.3962C17.0892 27.9091 16.234 25.8921 16.234 23.7891V11.8945ZM24.351 6.44287C22.871 6.44287 21.4516 7.01724 20.405 8.03962C19.3585 9.06201 18.7706 10.4487 18.7706 11.8945V23.7891C18.7706 25.2349 19.3585 26.6216 20.405 27.644C21.4516 28.6664 22.871 29.2407 24.351 29.2407C25.831 29.2407 27.2504 28.6664 28.297 27.644C29.3435 26.6216 29.9315 25.2349 29.9315 23.7891V11.8945C29.9315 10.4487 29.3435 9.06201 28.297 8.03962C27.2504 7.01724 25.831 6.44287 24.351 6.44287ZM25.3656 37.3835C32.7369 36.875 38.5558 30.8713 38.5558 23.5413C38.5558 23.2127 38.4222 22.8975 38.1843 22.6651C37.9465 22.4328 37.6239 22.3022 37.2875 22.3022C36.9511 22.3022 36.6285 22.4328 36.3907 22.6651C36.1528 22.8975 36.0192 23.2127 36.0192 23.5413C36.0192 29.8364 30.7949 34.9402 24.351 34.9402C17.9071 34.9402 12.6828 29.8364 12.6828 23.5413C12.6828 23.2127 12.5492 22.8975 12.3113 22.6651C12.0735 22.4328 11.7509 22.3022 11.4145 22.3022C11.0782 22.3022 10.7556 22.4328 10.5177 22.6651C10.2799 22.8975 10.1463 23.2127 10.1463 23.5413C10.1463 30.7028 15.6993 36.5975 22.8291 37.3389V42.3743C22.8291 42.7029 22.9627 43.018 23.2005 43.2504C23.4384 43.4827 23.761 43.6133 24.0974 43.6133C24.4337 43.6133 24.7563 43.4827 24.9942 43.2504C25.232 43.018 25.3656 42.7029 25.3656 42.3743V37.3835Z" fill="white"/>
</svg>
