<svg width="100" height="100" viewBox="0 0 100 100" fill="none" xmlns="http://www.w3.org/2000/svg">
<g clip-path="url(#clip0_1_39)">
<path d="M86.3208 54.4166C87.4913 53.2448 88.1487 51.6562 88.1487 50C88.1487 48.3437 87.4913 46.7552 86.3208 45.5833L62.7542 22.0041C61.5817 20.8317 59.9915 20.173 58.3333 20.173C56.6752 20.173 55.085 20.8317 53.9125 22.0041C52.74 23.1766 52.0813 24.7668 52.0813 26.425C52.0813 28.0831 52.74 29.6733 53.9125 30.8458L66.8125 43.75L18.75 43.75C17.0924 43.75 15.5027 44.4085 14.3306 45.5806C13.1585 46.7527 12.5 48.3424 12.5 50C12.5 51.6576 13.1585 53.2473 14.3306 54.4194C15.5027 55.5915 17.0924 56.25 18.75 56.25L66.8125 56.25L53.9125 69.15C53.3319 69.7305 52.8714 70.4197 52.5572 71.1783C52.243 71.9368 52.0813 72.7498 52.0813 73.5708C52.0813 74.3918 52.243 75.2048 52.5572 75.9633C52.8714 76.7219 53.3319 77.4111 53.9125 77.9916C54.4931 78.5722 55.1823 79.0327 55.9408 79.3469C56.6993 79.6611 57.5123 79.8228 58.3333 79.8228C59.1544 79.8228 59.9673 79.6611 60.7259 79.3469C61.4844 79.0327 62.1736 78.5722 62.7542 77.9916L86.3208 54.4166Z" fill="#FF6838"/>
</g>
<defs>
<clipPath id="clip0_1_39">
<rect width="100" height="100" fill="white" transform="matrix(0 1 -1 0 100 0)"/>
</clipPath>
</defs>
</svg>
